<svg xmlns="http://www.w3.org/2000/svg" xmlns:xlink="http://www.w3.org/1999/xlink" width="128" zoomAndPan="magnify" viewBox="0 0 96 95.999999" height="128" preserveAspectRatio="xMidYMid meet" version="1.0"><defs><clipPath id="5d196402ef"><path d="M 48 0 C 21.492188 0 0 21.492188 0 48 C 0 74.507812 21.492188 96 48 96 C 74.507812 96 96 74.507812 96 48 C 96 21.492188 74.507812 0 48 0 Z M 48 0 " clip-rule="nonzero"/></clipPath><clipPath id="0932376d2d"><path d="M 68 57 L 70 57 L 70 79.789062 L 68 79.789062 Z M 68 57 " clip-rule="nonzero"/></clipPath><clipPath id="9859ab4c92"><path d="M 18.558594 16.039062 L 77.808594 16.039062 L 77.808594 79.789062 L 18.558594 79.789062 Z M 18.558594 16.039062 " clip-rule="nonzero"/></clipPath></defs><g clip-path="url(#5d196402ef)"><rect x="-9.6" width="115.2" fill="#1d2261" y="-9.6" height="115.199999" fill-opacity="1"/><path stroke-linecap="butt" transform="matrix(0.75, 0, 0, 0.75, 0.0000005, 0.000002)" fill="none" stroke-linejoin="miter" d="M 64.000003 -0.00000266667 C 28.656251 -0.00000266667 -0.000000666667 28.656249 -0.000000666667 64.000001 C -0.000000666667 99.343753 28.656251 128.000004 64.000003 128.000004 C 99.343755 128.000004 128.000006 99.343753 128.000006 64.000001 C 128.000006 28.656249 99.343755 -0.00000266667 64.000003 -0.00000266667 Z M 64.000003 -0.00000266667 " stroke="#ffffff" stroke-width="6" stroke-opacity="1" stroke-miterlimit="4"/></g><g clip-path="url(#0932376d2d)"><path fill="#ffffff" d="M 68.9375 57.554688 C 68.65625 57.554688 68.429688 57.78125 68.429688 58.0625 L 68.429688 79.445312 C 68.429688 79.726562 68.65625 79.953125 68.9375 79.953125 C 69.21875 79.953125 69.445312 79.726562 69.445312 79.445312 L 69.445312 58.0625 C 69.445312 57.78125 69.21875 57.554688 68.9375 57.554688 Z M 68.9375 57.554688 " fill-opacity="1" fill-rule="nonzero"/></g><path fill="#ffffff" d="M 60.773438 59.292969 L 56.117188 59.292969 C 55.839844 59.292969 55.613281 59.519531 55.613281 59.800781 L 55.613281 66.910156 C 55.613281 67.1875 55.839844 67.414062 56.117188 67.414062 L 60.773438 67.414062 C 61.054688 67.414062 61.28125 67.1875 61.28125 66.910156 L 61.28125 59.800781 C 61.28125 59.519531 61.054688 59.292969 60.773438 59.292969 Z M 60.773438 59.292969 " fill-opacity="1" fill-rule="nonzero"/><g clip-path="url(#9859ab4c92)"><path fill="#ffffff" d="M 75.046875 52.613281 C 73.027344 48.902344 68.585938 46.757812 67.242188 46.175781 C 67.28125 45.765625 67.171875 45.363281 66.929688 45.023438 C 66.65625 44.648438 66.253906 44.40625 65.792969 44.339844 C 65.703125 44.328125 65.628906 44.320312 65.558594 44.320312 C 65.113281 44.320312 64.703125 44.496094 64.398438 44.785156 C 64.105469 44.183594 63.917969 43.523438 63.828125 42.808594 C 65.066406 41.925781 66.179688 40.769531 66.835938 39.671875 C 67.636719 38.339844 68.324219 35.699219 68.675781 32.679688 C 68.804688 32.703125 68.9375 32.714844 69.074219 32.714844 C 69.652344 32.714844 70.207031 32.5 70.628906 32.105469 C 71.128906 31.644531 71.394531 30.988281 71.359375 30.3125 C 71.324219 29.632812 70.988281 29.003906 70.445312 28.59375 C 70.285156 28.472656 70.117188 28.355469 69.949219 28.234375 C 69.878906 27.140625 69.542969 22.820312 68.433594 20.710938 C 67.074219 18.125 61.859375 16.039062 58.449219 16.039062 C 55.035156 16.039062 49.820312 18.125 48.460938 20.710938 C 47.351562 22.820312 47.015625 27.136719 46.945312 28.234375 C 46.785156 28.347656 46.621094 28.464844 46.445312 28.597656 C 45.898438 29.007812 45.566406 29.632812 45.53125 30.3125 C 45.496094 30.988281 45.757812 31.636719 46.25 32.097656 C 46.25 32.101562 46.253906 32.101562 46.253906 32.105469 C 46.6875 32.507812 47.25 32.71875 47.816406 32.71875 C 47.953125 32.71875 48.085938 32.707031 48.21875 32.683594 C 48.570312 35.699219 49.257812 38.339844 50.058594 39.675781 C 50.71875 40.769531 51.828125 41.925781 53.066406 42.808594 C 52.976562 43.519531 52.789062 44.183594 52.496094 44.785156 C 52.191406 44.496094 51.785156 44.320312 51.339844 44.320312 C 51.265625 44.320312 51.1875 44.328125 51.097656 44.339844 C 50.636719 44.40625 50.238281 44.648438 49.964844 45.023438 C 49.722656 45.363281 49.613281 45.769531 49.652344 46.175781 C 48.308594 46.757812 43.867188 48.902344 41.847656 52.613281 C 41.273438 53.675781 40.804688 55.796875 40.429688 59.054688 C 39.707031 56.019531 38.949219 52.960938 38.679688 51.875 C 39.5625 51.382812 40.144531 50.324219 40.144531 49.132812 C 40.144531 48.003906 39.613281 46.976562 38.792969 46.460938 L 39.65625 24.5 C 39.65625 24.492188 39.65625 24.480469 39.65625 24.472656 C 39.660156 24.460938 39.660156 24.445312 39.660156 24.429688 C 39.660156 23.476562 38.910156 22.699219 37.957031 22.660156 C 37.484375 22.644531 37.035156 22.808594 36.6875 23.128906 C 36.488281 23.316406 36.335938 23.539062 36.242188 23.785156 C 35.214844 23.59375 32.78125 23.222656 30.582031 23.488281 C 29.316406 23.644531 28.285156 23.921875 27.289062 24.191406 C 26.074219 24.523438 25.023438 24.804688 23.773438 24.804688 C 21.621094 24.804688 19.472656 23.082031 19.453125 23.066406 C 19.285156 22.929688 19.050781 22.914062 18.867188 23.027344 C 18.683594 23.136719 18.589844 23.351562 18.632812 23.5625 C 18.683594 23.796875 19.855469 29.339844 22.730469 31.226562 C 24.492188 32.382812 26.785156 32.707031 28.808594 32.996094 C 30.078125 33.175781 31.277344 33.34375 32.222656 33.691406 C 34.199219 34.414062 35.335938 35.675781 35.660156 36.074219 L 35.300781 45.15625 C 35.089844 45.085938 34.871094 45.039062 34.648438 45.023438 C 32.507812 44.855469 31.046875 45.214844 30.308594 46.089844 C 28.8125 47.867188 28.28125 52.628906 28.664062 54.125 C 28.882812 54.976562 29.589844 55.574219 30.273438 56.15625 C 30.832031 56.632812 31.40625 57.125 31.699219 57.734375 C 32.050781 58.472656 32.277344 63 32.4375 66.300781 C 32.589844 69.332031 32.71875 71.953125 32.933594 72.734375 C 33.449219 74.609375 35.6875 76.996094 37.542969 77.644531 C 37.851562 77.753906 38.207031 77.804688 38.59375 77.804688 C 40.644531 77.804688 43.554688 76.441406 44.800781 75.226562 C 45.660156 74.390625 46.699219 71.894531 47.449219 69.847656 L 47.449219 79.445312 C 47.449219 79.726562 47.675781 79.953125 47.957031 79.953125 C 48.234375 79.953125 48.464844 79.726562 48.464844 79.445312 L 48.464844 58.0625 C 48.464844 57.78125 48.234375 57.554688 47.957031 57.554688 C 47.675781 57.554688 47.449219 57.78125 47.449219 58.0625 L 47.449219 66.71875 C 46.851562 68.605469 45.152344 73.46875 44.09375 74.5 C 42.730469 75.828125 39.285156 77.183594 37.878906 76.6875 C 36.339844 76.152344 34.335938 74.019531 33.910156 72.464844 C 33.726562 71.789062 33.585938 68.976562 33.453125 66.253906 C 33.210938 61.402344 33.023438 58.15625 32.613281 57.296875 C 32.230469 56.492188 31.539062 55.902344 30.929688 55.382812 C 30.34375 54.882812 29.785156 54.410156 29.648438 53.871094 C 29.320312 52.601562 29.863281 48.195312 31.085938 46.746094 C 31.585938 46.152344 32.824219 45.898438 34.566406 46.035156 C 34.894531 46.058594 35.207031 46.179688 35.472656 46.378906 C 35.734375 46.578125 35.933594 46.84375 36.046875 47.152344 C 36.121094 47.347656 36.15625 47.554688 36.15625 47.761719 L 36.15625 50.554688 C 36.15625 50.753906 36.125 50.949219 36.058594 51.132812 C 35.917969 51.53125 35.636719 51.863281 35.269531 52.070312 C 35.148438 52.136719 35.019531 52.191406 34.882812 52.230469 L 32.980469 52.753906 C 32.710938 52.828125 32.554688 53.109375 32.628906 53.378906 C 32.703125 53.648438 32.984375 53.808594 33.253906 53.730469 L 34.984375 53.253906 L 34.757812 59.050781 C 34.753906 59.078125 34.753906 59.101562 34.753906 59.128906 C 34.753906 60.082031 35.5 60.859375 36.453125 60.894531 C 36.476562 60.894531 36.5 60.894531 36.527344 60.894531 C 37.46875 60.894531 38.253906 60.148438 38.292969 59.195312 L 38.449219 55.183594 C 38.96875 57.296875 39.625 60.019531 40.144531 62.28125 C 40.566406 64.128906 40.84375 65.417969 40.957031 66.113281 C 41.421875 68.894531 41.097656 72.320312 41.09375 72.355469 C 41.066406 72.632812 41.269531 72.882812 41.550781 72.910156 C 41.566406 72.910156 41.582031 72.914062 41.597656 72.914062 C 41.855469 72.914062 42.078125 72.714844 42.105469 72.453125 C 42.117188 72.308594 42.445312 68.859375 41.957031 65.945312 C 41.839844 65.242188 41.570312 63.957031 41.148438 62.128906 C 41.640625 56.183594 42.285156 53.933594 42.742188 53.097656 C 44.492188 49.878906 48.398438 47.863281 49.847656 47.203125 C 50.613281 50.796875 51.976562 53.972656 53.90625 56.667969 C 53.324219 57.101562 52.960938 57.796875 52.960938 58.542969 L 52.960938 67.8125 C 52.960938 69.105469 54.011719 70.15625 55.304688 70.15625 L 61.589844 70.15625 C 62.882812 70.15625 63.933594 69.105469 63.933594 67.8125 L 63.933594 58.542969 C 63.933594 57.796875 63.570312 57.101562 62.988281 56.667969 C 64.921875 53.972656 66.285156 50.796875 67.046875 47.203125 C 68.496094 47.863281 72.402344 49.878906 74.152344 53.097656 C 76.34375 57.132812 76.398438 79.226562 76.398438 79.449219 C 76.398438 79.726562 76.625 79.953125 76.90625 79.953125 C 77.1875 79.953125 77.414062 79.726562 77.414062 79.445312 C 77.410156 78.527344 77.359375 56.871094 75.046875 52.613281 Z M 37.933594 51.097656 C 37.820312 51.132812 37.707031 51.148438 37.585938 51.148438 C 37.429688 51.148438 37.273438 51.117188 37.125 51.054688 C 37.15625 50.890625 37.171875 50.726562 37.171875 50.554688 L 37.171875 47.761719 C 37.171875 47.578125 37.152344 47.398438 37.113281 47.214844 C 37.425781 47.085938 37.765625 47.085938 38.070312 47.21875 C 38.707031 47.496094 39.132812 48.265625 39.132812 49.132812 C 39.132812 50.058594 38.628906 50.886719 37.933594 51.097656 Z M 37.375 23.875 C 37.523438 23.738281 37.714844 23.667969 37.917969 23.675781 C 38.324219 23.691406 38.644531 24.023438 38.644531 24.433594 C 38.644531 24.445312 38.644531 24.457031 38.644531 24.464844 L 37.792969 46.113281 C 37.722656 46.105469 37.65625 46.101562 37.585938 46.101562 C 37.292969 46.101562 37.007812 46.160156 36.734375 46.273438 C 36.613281 46.082031 36.464844 45.90625 36.292969 45.75 L 37.132812 24.398438 C 37.140625 24.199219 37.226562 24.011719 37.375 23.875 Z M 36.492188 59.882812 C 36.085938 59.867188 35.769531 59.535156 35.769531 59.128906 L 35.769531 59.113281 C 35.769531 59.105469 35.769531 59.101562 35.769531 59.097656 L 36.015625 52.792969 C 36.316406 52.582031 36.566406 52.3125 36.757812 52 C 37.011719 52.101562 37.28125 52.160156 37.554688 52.164062 L 37.277344 59.15625 C 37.261719 59.574219 36.910156 59.894531 36.492188 59.882812 Z M 57.859375 56.199219 C 55.4375 53.464844 53.816406 50 53.035156 45.894531 C 53.507812 45.152344 53.828125 44.316406 54 43.40625 C 55.136719 44.0625 56.683594 44.691406 58.449219 44.691406 C 60.210938 44.691406 61.757812 44.0625 62.894531 43.40625 C 63.066406 44.320312 63.386719 45.152344 63.855469 45.894531 C 63.078125 50 61.457031 53.464844 59.035156 56.199219 Z M 46.949219 31.367188 C 46.949219 31.367188 46.949219 31.363281 46.945312 31.363281 C 46.671875 31.105469 46.523438 30.742188 46.542969 30.367188 C 46.5625 29.988281 46.75 29.636719 47.054688 29.40625 C 47.292969 29.230469 47.507812 29.074219 47.722656 28.929688 C 49.910156 27.4375 53.546875 25.660156 58.449219 25.660156 C 63.351562 25.660156 66.984375 27.4375 69.171875 28.929688 C 69.398438 29.085938 69.621094 29.246094 69.832031 29.402344 C 70.140625 29.632812 70.324219 29.984375 70.34375 30.363281 C 70.363281 30.742188 70.214844 31.105469 69.941406 31.363281 C 69.703125 31.582031 69.394531 31.703125 69.074219 31.703125 C 68.863281 31.703125 68.65625 31.648438 68.472656 31.554688 C 68.410156 31.519531 68.355469 31.484375 68.300781 31.445312 C 66.675781 30.234375 63.234375 28.199219 58.449219 28.199219 C 53.65625 28.199219 50.214844 30.234375 48.585938 31.449219 C 48.535156 31.488281 48.480469 31.523438 48.421875 31.554688 C 48.421875 31.554688 48.421875 31.554688 48.417969 31.554688 C 47.9375 31.8125 47.347656 31.734375 46.949219 31.367188 Z M 50.929688 39.152344 C 50.171875 37.890625 49.515625 35.269531 49.195312 32.261719 C 50.71875 31.125 53.949219 29.214844 58.449219 29.214844 C 62.941406 29.214844 66.171875 31.121094 67.695312 32.257812 C 67.695312 32.257812 67.699219 32.261719 67.699219 32.261719 C 67.378906 35.269531 66.722656 37.890625 65.964844 39.152344 C 65.335938 40.199219 64.230469 41.320312 63.003906 42.144531 C 61.96875 42.84375 60.335938 43.675781 58.449219 43.675781 C 56.558594 43.675781 54.925781 42.84375 53.886719 42.144531 C 52.664062 41.320312 51.558594 40.199219 50.929688 39.152344 Z M 62.917969 67.8125 C 62.917969 68.542969 62.324219 69.140625 61.589844 69.140625 L 55.304688 69.140625 C 54.570312 69.140625 53.976562 68.542969 53.976562 67.8125 L 53.976562 58.542969 C 53.976562 57.996094 54.320312 57.496094 54.832031 57.300781 C 54.980469 57.242188 55.140625 57.214844 55.304688 57.214844 L 61.589844 57.214844 C 61.753906 57.214844 61.910156 57.242188 62.058594 57.300781 C 62.0625 57.300781 62.0625 57.300781 62.0625 57.300781 C 62.574219 57.496094 62.917969 57.996094 62.917969 58.542969 Z M 62.917969 67.8125 " fill-opacity="1" fill-rule="nonzero"/></g></svg>